<?xml version="1.0" encoding="UTF-8"?>
<svg id="Layer_1" data-name="Layer 1" xmlns="http://www.w3.org/2000/svg" viewBox="0 0 256 256">
  <defs>
    <style>
      .cls-1 {
        fill: #fff;
      }
    </style>
  </defs>
  <rect class="cls-1" width="256" height="256"/>
  <path d="M55.67,74.82c-6-2.25-7.88-5.25-7.13-9,2.63-12.01,16.88-24.39,34.51-24.39s28.14,10.88,28.14,24.39c0,15.38-15.38,32.26-47.64,45.77v.75c18.38-3.75,49.52-6.75,70.9-6.75,33.76,0,75.03,8.25,75.03,50.65,0,20.63-13.13,42.39-40.89,63.03-1.5-4.13-3.38-7.13-5.63-10.5,16.88-15.38,24.76-31.14,24.76-46.14,0-15.76-7.88-25.89-21.01-32.64-11.63-6-30.76-8.25-50.65-8.25-25.51,0-60.03,3.38-70.9,4.88.37-3.75,0-9.38-.75-12.38,28.14-18.76,45.39-31.51,45.39-43.89,0-7.5-4.13-10.88-12.01-10.88-8.63,0-16.13,6.38-22.13,15.38ZM206.48,38.81c-12.01,2.63-27.39,4.88-41.27,7.13-12.01,1.88-17.26,7.5-19.51,19.13-1.88,9-3.38,20.63-4.5,29.64,11.25-.75,13.88-1.5,15.38-5.25l8.25-21.38,28.89-4.5c8.63-1.88,13.51-5.63,13.51-16.13,0-3-.75-8.63-.75-8.63Z"/>
  <rect x="-1.05" y="0" width="20" height="256"/>
  <rect x="236" y="0" width="20" height="256"/>
  <rect x="118.48" y="-106.6" width="18" height="230.4" transform="translate(118.88 136.07) rotate(-90)"/>
  <rect x="118.48" y="131.8" width="18" height="230.4" transform="translate(-119.52 374.48) rotate(-90)"/>
</svg>